<?xml version="1.0" encoding="utf-8"?>
<!-- Generator: Adobe Illustrator 21.0.2, SVG Export Plug-In . SVG Version: 6.00 Build 0)  -->
<svg version="1.1" id="Layer_1" xmlns="http://www.w3.org/2000/svg" xmlns:xlink="http://www.w3.org/1999/xlink" x="0px" y="0px"
	 viewBox="0 0 228.6 226.1" style="enable-background:new 0 0 228.6 226.1;" xml:space="preserve">
<style type="text/css">
	.st0{fill:#D61C55;}
</style>
<path class="st0" d="M217.2,64.9C204.1,38,181.3,17.8,153,8.1C94.7-12,30.8,19.1,10.7,77.5c-9.8,28.3-7.9,58.7,5.2,85.6
	s35.9,47,64.2,56.8c12,4.1,24.3,6.2,36.6,6.2c16.8,0,33.5-3.8,49-11.4c26.9-13.1,47.1-35.9,56.8-64.2
	C232.2,122.2,230.3,91.8,217.2,64.9z M222.4,119.3l-66.2,18.2l14.4,67c-2.8,1.6-5.8,3.2-8.8,4.6l-16.9-78.9l77.2-20.9
	C222.2,111.6,222.4,115,222.4,119.3z M220.9,135.3l-47.3,12.9l10.2,47.6c-2.8,2.1-5.7,4.1-8.8,6.1l-13-60.8l60.2-16.5
	C222,127.8,221.6,131.4,220.9,135.3z M213.9,158.5c-0.1,0.2-0.2,0.5-0.3,0.7c-1.1,2.5-2.4,4.9-3.7,7.3c-2.5,4.5-5.5,8.7-8.7,12.8
	l-3.8-17.6l17.2-4.7c-0.2,0.5-0.4,1-0.6,1.4C213.9,158.4,213.9,158.5,213.9,158.5z M191.4,158.1L197,184c-2.7,2.9-5.6,5.7-8.8,8.3
	l-8.7-40.6l40.3-11c-0.4,1.7-0.8,3.4-1.3,5.1c-0.5,1.8-1.1,3.5-1.7,5.3L191.4,158.1z M9.6,110.1l56.3-19.6L48.8,31.3
	c3.7-3,7.5-5.7,11.5-8.2l21.9,75.8L10,124.1C9.6,119.4,9.5,114.8,9.6,110.1z M88.3,102L64.7,20.5c4.6-2.6,9.4-4.8,14.4-6.6
	l28.1,96.9l-93.5,32.6c-1.3-4.7-2.4-9.4-3.1-14.3L88.3,102z M44.6,34.9l15.2,52.4L10,104.7c0.4-4.7,1.1-9.4,2.2-14.1l31-10.8
	l-9.6-33.2C36.9,42.4,40.6,38.5,44.6,34.9z M29.7,51.5L37,76.6l-23.4,8.2c0.5-1.9,1.1-3.8,1.8-5.6C18.9,69,23.8,59.8,29.7,51.5z
	 M15.2,148.2l98.1-34.3L83.8,12.2c4.4-1.4,8.8-2.5,13.4-3.4l32.9,113.7L20.3,160.7C18.4,156.7,16.7,152.5,15.2,148.2z M81.7,215.2
	c-26.2-9-46.7-27.3-59-50l113.6-39.6L102.2,8c4.8-0.7,9.6-1,14.4-1c11.5,0,23.3,1.9,34.8,5.8c27,9.3,48.8,28.6,61.3,54.3
	c5.7,11.7,9.2,24.1,10.4,36.7l-84.3,22.9l18.5,86.2C133.2,222.9,106.6,223.8,81.7,215.2z"/>
<path d="M212.7,62.9C199.6,36,176.8,15.8,148.5,6.1C90.2-14,26.3,17.1,6.2,75.5c-9.8,28.3-7.9,58.7,5.2,85.6s35.9,47.1,64.2,56.8
	c12,4.1,24.3,6.2,36.6,6.2c16.8,0,33.5-3.8,49-11.4c26.9-13.1,47.1-35.9,56.8-64.2C227.7,120.2,225.8,89.8,212.7,62.9z M217.9,117.3
	l-66.2,18.2l14.4,67c-2.8,1.6-5.8,3.2-8.8,4.6l-16.9-78.9l77.2-20.9C217.7,109.6,217.9,113,217.9,117.3z M216.4,133.3l-47.3,12.9
	l10.2,47.6c-2.8,2.1-5.7,4.1-8.8,6.1l-13.1-60.8l60.2-16.5C217.5,125.8,217.1,129.4,216.4,133.3z M209.4,156.5
	c-0.1,0.2-0.2,0.5-0.3,0.7c-1.1,2.5-2.4,4.9-3.7,7.3c-2.5,4.5-5.5,8.7-8.7,12.8l-3.8-17.6l17.2-4.7c-0.2,0.5-0.4,1-0.6,1.4
	C209.4,156.4,209.4,156.5,209.4,156.5z M186.9,156.1l5.6,25.9c-2.7,2.9-5.6,5.7-8.8,8.3l-8.7-40.6l40.3-11c-0.4,1.7-0.8,3.4-1.3,5.1
	c-0.5,1.8-1.1,3.5-1.7,5.3L186.9,156.1z M5.1,108.1l56.3-19.6L44.3,29.3c3.7-3,7.5-5.7,11.5-8.2l21.9,75.8L5.5,122.1
	C5.1,117.4,5,112.8,5.1,108.1z M83.8,100L60.2,18.5c4.6-2.6,9.4-4.8,14.4-6.6l28.1,96.9L9.2,141.4c-1.3-4.7-2.4-9.4-3.1-14.3
	L83.8,100z M40.1,32.9l15.2,52.4L5.5,102.7c0.4-4.7,1.1-9.4,2.2-14.1l31-10.8L29,44.6C32.4,40.4,36.1,36.5,40.1,32.9z M25.2,49.5
	l7.3,25.1L9.1,82.8c0.5-1.9,1.1-3.8,1.8-5.6C14.4,67,19.3,57.8,25.2,49.5z M10.7,146.2l98.1-34.3L79.3,10.2
	c4.4-1.4,8.8-2.5,13.4-3.4l32.9,113.7L15.8,158.7C13.9,154.7,12.2,150.5,10.7,146.2z M77.2,213.2c-26.2-9-46.7-27.3-59-50
	l113.6-39.6L97.7,6c4.8-0.7,9.6-1,14.4-1c11.5,0,23.3,1.9,34.8,5.8c27,9.3,48.8,28.6,61.3,54.3c5.7,11.7,9.2,24.1,10.4,36.7
	l-84.3,22.9l18.5,86.2C128.7,220.9,102.1,221.8,77.2,213.2z"/>
</svg>
